<?xml version="1.0" standalone="no"?>
<!DOCTYPE svg PUBLIC "-//W3C//DTD SVG 1.1//EN" 
    "http://www.w3.org/Graphics/SVG/1.1/DTD/svg11.dtd">
<svg width="16.3cm" height="22.5cm"
    xmlns="http://www.w3.org/2000/svg" version="1.1" viewBox="0 0 577.55906 797.24409">
  <g fill="none" stroke="black" stroke-width="0.03cm" stroke-linejoin="round" stroke-linecap="round">
    <path d="M288.77953 398.62205 L254.3517 398.62205 L254.3517 469.8177 L288.77953 469.8177 L288.77953 398.62205 L192.68676 398.62205 L192.68676 362.5086 L288.77953 362.5086 L288.77953 398.62205 L331.84441 398.62205 L331.84441 368.90958 L288.77953 368.90958 L288.77953 398.62205 L282.16693 398.62205 L282.16693 448.0945 L288.77953 448.0945 L288.77953 398.62205 L371.17381 398.62205 L371.17381 359.00832 L288.77953 359.00832 L288.77953 398.62205 L339.06488 398.62205 L339.06488 335.82301 L288.77953 335.82301 L288.77953 398.62205 L352.60877 398.62205 L352.60877 480.1309 L288.77953 480.1309 L288.77953 398.62205 L343.91391 398.62205 L343.91391 363.76436 L288.77953 363.76436 L288.77953 398.62205 L328.32684 398.62205 L328.32684 274.69761 L288.77953 274.69761 L288.77953 398.53223 L288.77953 398.62205 L335.25448 398.62205 L335.25448 497.40967 L288.77953 497.40967 L288.77953 398.62205 L255.34416 398.62205 L255.34416 407.4242 L288.77953 407.4242 L288.77953 398.62205 L343.27759 398.62205 L343.27759 377.20954 L288.77953 377.20954 L288.77953 398.62205 L138.04477 398.62205 L138.04477 378.20183 L288.77953 378.20183 L288.77953 398.62205 L235.04419 398.62205 L235.04419 451.60272 L288.77953 451.60272 L288.77953 398.62205 L270.45825 398.62205 L270.45825 472.82994 L288.77953 472.82994 L288.77953 398.62205" />
  </g>
</svg>