<?xml version="1.0" standalone="no"?>
<!DOCTYPE svg PUBLIC "-//W3C//DTD SVG 1.1//EN" 
    "http://www.w3.org/Graphics/SVG/1.1/DTD/svg11.dtd">
<svg width="16.3cm" height="22.5cm"
    xmlns="http://www.w3.org/2000/svg" version="1.1" viewBox="0 0 577.55906 797.24409">
  <g fill="none" stroke="black" stroke-width="0.03cm" stroke-linejoin="round" stroke-linecap="round">
    <path d="M288.77953 398.62205 L413.60815 398.62205 L413.60815 413.90374 L288.77953 413.90374 L288.77953 398.79367 L288.77953 398.62205 L196.14918 398.62205 L196.14918 359.0363 L288.77953 359.0363 L288.77953 398.62205 L127.60514 398.62205 L127.60514 481.03633 L288.77953 481.03633 L288.77953 398.62205 L329.31543 398.62205 L329.31543 64.81605 L288.77953 64.81605 L288.77953 398.62205 L168.01603 398.62205 L168.01603 534.64696 L288.77953 534.64696 L288.77953 398.62205 L432.62824 398.62205 L432.62824 305.42603 L288.77953 305.42603 L288.77953 398.5545 L288.77953 398.62205 L243.127 398.62205 L243.127 343.50498 L288.77953 343.50498 L288.77953 398.62205 L231.27859 398.62205 L231.27859 479.15788 L288.77953 479.15788 L288.77953 398.62205 L264.87054 398.62205 L264.87054 593.86747 L288.77953 593.86747 L288.77953 398.62205 L339.43998 398.62205 L339.43998 470.63877 L288.77953 470.63877 L288.77953 398.62205 L316.25919 398.62205 L316.25919 396.42449 L288.77953 396.42449 L288.77953 398.62205 L233.29104 398.62205 L233.29104 460.26381 L288.77953 460.26381 L288.77953 398.62205 L161.19952 398.62205 L161.19952 460.29508 L288.77953 460.29508 L288.77953 398.62205 L75.40283 398.62205 L75.40283 478.58615 L288.77953 478.58615 L288.77953 398.62205 L369.98677 398.62205 L369.98677 355.99425 L288.77953 355.99425 L288.77953 398.62205" />
  </g>
</svg>