<?xml version="1.0" standalone="no"?>
<!DOCTYPE svg PUBLIC "-//W3C//DTD SVG 1.1//EN" 
    "http://www.w3.org/Graphics/SVG/1.1/DTD/svg11.dtd">
<svg width="16.3cm" height="22.5cm"
    xmlns="http://www.w3.org/2000/svg" version="1.1" viewBox="0 0 577.55906 797.24409">
  <g fill="none" stroke="black" stroke-width="0.03cm" stroke-linejoin="round" stroke-linecap="round">
    <path d="M288.77953 398.62205 L192.12022 398.62205 L192.12022 326.26067 L288.77953 326.26067 L288.77953 398.62205 L340.03073 398.62205 L340.03073 444.71053 L288.77953 444.71053 L288.77953 398.62205 L252.22218 398.62205 L252.22218 143.42099 L288.77953 143.42099 L288.77953 398.62205 L425.23568 398.62205 L425.23568 673.80658 L288.77953 673.80658 L288.77953 398.8215 L288.77953 398.62205 L298.2699 398.62205 L298.2699 319.96469 L288.77953 319.96469 L288.77953 398.62205 L300.14152 398.62205 L300.14152 407.10628 L288.77953 407.10628 L288.77953 398.62205 L311.74336 398.62205 L311.74336 368.70683 L288.77953 368.70683 L288.77953 398.53623 L288.77953 398.62205 L254.21009 398.62205 L254.21009 367.10059 L288.77953 367.10059 L288.77953 398.62205 L315.06467 398.62205 L315.06467 481.85281 L288.77953 481.85281 L288.77953 398.62205 L312.35709 398.62205 L312.35709 400.2057 L288.77953 400.2057 L288.77953 398.62205 L241.15164 398.62205 L241.15164 221.57863 L288.77953 221.57863 L288.77953 398.62205 L375.84695 398.62205 L375.84695 337.41924 L288.77953 337.41924 L288.77953 398.44648 L288.77953 398.62205 L170.85155 398.62205 L170.85155 248.86298 L288.77953 248.86298 L288.77953 398.62205" />
  </g>
</svg>