<?xml version="1.0" standalone="no"?>
<!DOCTYPE svg PUBLIC "-//W3C//DTD SVG 1.1//EN" 
    "http://www.w3.org/Graphics/SVG/1.1/DTD/svg11.dtd">
<svg width="16.3cm" height="22.5cm"
    xmlns="http://www.w3.org/2000/svg" version="1.1" viewBox="0 0 577.55906 797.24409">
  <g fill="none" stroke="black" stroke-width="0.03cm" stroke-linejoin="round" stroke-linecap="round">
    <path d="M288.77953 398.62205 L288.77953 387.40809 L288.77953 398.62205 L282.5358 398.62205 L282.5358 321.70852 L288.77953 321.70852 L288.77953 398.62205 L262.69399 398.62205 L262.69399 424.50557 L288.77953 424.50557 L288.77953 398.62205 L318.12341 398.62205 L318.12341 403.88567 L288.77953 403.88567 L288.77953 398.62205 L354.58821 398.62205 L354.58821 379.25787 L288.77953 379.25787 L288.77953 398.62205 L150.02009 398.62205 L150.02009 506.96554 L288.77953 506.96554 L288.77953 398.62205 L288.77953 398.49502 L288.77953 354.34169 L288.77953 354.46872 L288.77953 398.62205 L278.55138 398.62205 L278.55138 468.10451 L288.77953 468.10451 L288.77953 398.62205 L109.85329 398.62205 L109.85329 341.92612 L288.77953 341.92612 L288.77953 398.62205 L334.68663 398.62205 L334.68663 429.3516 L288.77953 429.3516 L288.77953 398.62205 L299.40595 398.62205 L299.40595 221.28344 L288.77953 221.28344 L288.77953 398.62205 L275.15771 398.62205 L275.15771 588.84176 L288.77953 588.84176 L288.77953 398.62205 L289.28219 398.62205 L289.28219 270.98714 L288.77953 270.98714 L288.77953 398.62205 L445.86553 398.62205 L445.86553 458.62431 L288.77953 458.62431 L288.77953 398.62205 L309.10657 398.62205 L309.10657 380.8829 L288.77953 380.8829 L288.77953 398.62205" />
  </g>
</svg>