<?xml version="1.0" standalone="no"?>
<!DOCTYPE svg PUBLIC "-//W3C//DTD SVG 1.1//EN" 
    "http://www.w3.org/Graphics/SVG/1.1/DTD/svg11.dtd">
<svg width="16.3cm" height="22.5cm"
    xmlns="http://www.w3.org/2000/svg" version="1.1" viewBox="0 0 577.55906 797.24409">
  <g fill="none" stroke="black" stroke-width="0.03cm" stroke-linejoin="round" stroke-linecap="round">
    <path d="M288.77953 398.62205 L288.21414 398.62205 L288.21414 398.44143 L288.77953 398.44143 L288.77953 398.62205 L257.39839 398.62205 L257.39839 251.31671 L288.77953 251.31671 L288.77953 398.62205 L130.64609 398.62205 L130.64609 475.38044 L288.77953 475.38044 L288.77953 398.62205 L285.23872 398.62205 L285.23872 470.22228 L288.77953 470.22228 L288.77953 398.62205 L263.60404 398.62205 L263.60404 352.70264 L288.77953 352.70264 L288.77953 398.62205 L332.39947 398.62205 L332.39947 487.51283 L288.77953 487.51283 L288.77953 398.68647 L288.77953 398.62205 L118.89828 398.62205 L118.89828 289.56599 L288.77953 289.56599 L288.77953 398.62205 L75.83014 398.62205 L75.83014 130.35437 L288.77953 130.35437 L288.77953 398.62205 L292.55837 398.62205 L292.55837 340.66133 L288.77953 340.66133 L288.77953 398.62205 L358.88642 398.62205 L358.88642 406.43609 L288.77953 406.43609 L288.77953 398.62205 L377.33907 398.62205 L377.33907 411.7107 L288.77953 411.7107 L288.77953 398.76904 L288.77953 398.62205 L540.55661 398.62205 L540.55661 324.82002 L288.77953 324.82002 L288.77953 398.41033 L288.77953 398.62205 L252.21668 398.62205 L252.21668 494.75447 L288.77953 494.75447 L288.77953 398.62205 L312.0873 398.62205 L312.0873 524.4602 L288.77953 524.4602 L288.77953 398.62205 L496.93857 398.62205 L496.93857 423.63272 L288.77953 423.63272 L288.77953 398.62205" />
  </g>
</svg>